<svg width="194" height="65" viewBox="0 0 194 65" fill="none" xmlns="http://www.w3.org/2000/svg">
<mask id="mask0_881_13343" style="mask-type:luminance" maskUnits="userSpaceOnUse" x="0" y="21" width="44" height="44">
<path d="M15.9014 52.576C12.6337 50.1539 10.9998 47.0742 10.9998 43.3472C10.9998 40.3405 12.0301 37.7619 14.0802 35.6008C16.1407 33.4398 18.6695 32.3645 21.6666 32.3645C24.6637 32.3645 27.1926 33.4398 29.2531 35.6008C31.3136 37.7619 32.3438 40.3405 32.3438 43.3472V52.2523C32.3438 53.3485 31.4593 54.2359 30.3666 54.2359H21.0526C19.2003 54.2359 17.3687 53.6826 15.8909 52.576M6.37926 28.1155C2.12295 32.3332 0 37.4174 0 43.3576C0 50.1957 2.8202 55.875 8.47101 60.385C12.1446 63.3185 16.7547 64.8219 21.4481 64.8219H41.4809C42.5736 64.8219 43.4582 63.9345 43.4582 62.8383V43.3472C43.4582 37.4069 41.3248 32.3332 37.0477 28.1051C32.7705 23.8874 27.6609 21.7786 21.7083 21.7786C15.7556 21.7786 10.646 23.8874 6.38968 28.1051" fill="white"/>
</mask>
<g mask="url(#mask0_881_13343)">
<path d="M43.4478 21.7891H0V64.8219H43.4478V21.7891Z" fill="url(#paint0_linear_881_13343)"/>
</g>
<mask id="mask1_881_13343" style="mask-type:luminance" maskUnits="userSpaceOnUse" x="50" y="21" width="12" height="44">
<path d="M50.0039 22.4153V55.0501C50.0039 57.7122 50.9613 60.009 52.8762 61.9404C54.6765 63.7464 57.1741 64.7069 60.3689 64.8113C60.7124 64.8217 61.0037 64.5399 61.0037 64.1954V31.5605C61.0037 28.8984 60.0463 26.6016 58.1315 24.6703C56.3311 22.8642 53.8336 21.9037 50.6387 21.7993H50.6179C50.2849 21.7993 50.0039 22.0812 50.0039 22.4153Z" fill="white"/>
</mask>
<g mask="url(#mask1_881_13343)">
<path d="M61.0037 21.7993H50.0039V64.8218H61.0037V21.7993Z" fill="url(#paint1_linear_881_13343)"/>
</g>
<mask id="mask2_881_13343" style="mask-type:luminance" maskUnits="userSpaceOnUse" x="46" y="0" width="19" height="19">
<path d="M55.0618 0.354949C53.7921 6.16992 52.2416 7.715 46.4555 8.98865C45.9768 9.09305 45.9768 9.77164 46.4555 9.87604C52.2416 11.1497 53.7921 12.7052 55.0618 18.5097C55.1658 18.99 55.8423 18.99 55.9463 18.5097C57.2159 12.6948 58.7665 11.1497 64.5526 9.87604C65.0313 9.77164 65.0313 9.09305 64.5526 8.98865C58.7561 7.715 57.2159 6.16992 55.9463 0.354949C55.8943 0.114834 55.6966 0 55.4988 0C55.3011 0 55.1034 0.114834 55.0514 0.354949" fill="white"/>
</mask>
<g mask="url(#mask2_881_13343)">
<path d="M65.0314 0H45.9768V19.0004H65.0314V0Z" fill="url(#paint2_linear_881_13343)"/>
</g>
<mask id="mask3_881_13343" style="mask-type:luminance" maskUnits="userSpaceOnUse" x="67" y="21" width="45" height="44">
<path d="M88.7377 21.8002L88.4359 21.8211C82.8684 22.0403 78.0085 24.1596 73.9915 28.1268C69.7248 32.3444 67.5498 37.5017 67.5498 43.4419V63.027C67.5498 64.1232 68.4344 65.0001 69.5271 65.0001H89.2373C94.7424 65.0001 99.9457 63.0479 103.89 59.5088C107.636 56.1472 109.967 52.0965 110.8 47.4821C111.039 46.1458 111.164 45.1854 111.164 43.8386C111.164 43.1601 111.091 42.5546 110.987 42.0535C110.8 41.1452 109.999 40.4979 109.072 40.4979H96.626C94.6175 40.4979 92.89 41.2287 91.4435 42.6798C89.997 44.1309 89.2685 46.1876 89.2685 48.8393H98.7281C99.0716 48.8393 99.2901 49.2151 99.1132 49.5075C98.3951 50.635 97.4585 51.6685 96.3138 52.5872C94.5134 54.0383 92.1511 54.8318 89.6431 54.8318H80.2043C79.1116 54.8318 78.227 53.9444 78.227 52.8482V43.2958C78.227 40.143 79.3197 37.3868 81.4843 35.111C83.6697 32.8246 86.3858 31.6658 89.5599 31.6658C91.7349 31.6658 93.7017 32.2296 95.4396 33.3258C97.4169 34.7456 97.0735 35.3407 99.134 35.9879C99.1756 35.9984 99.2173 35.9984 99.2589 36.0192C99.8833 36.1967 100.476 36.2489 101.132 36.3116C103.39 36.4995 105.628 35.6747 107.792 33.8582L108.625 33.1587L108.052 32.2296C106.19 29.4944 104.254 27.6674 104.254 27.6674C100.091 23.7629 95.0962 21.7898 89.4038 21.7898C89.1852 21.7898 88.9667 21.8002 88.7482 21.8107" fill="white"/>
</mask>
<g mask="url(#mask3_881_13343)">
<path d="M111.164 21.7793H67.5603V65.0001H111.164V21.7793Z" fill="url(#paint3_linear_881_13343)"/>
</g>
<mask id="mask4_881_13343" style="mask-type:luminance" maskUnits="userSpaceOnUse" x="117" y="21" width="36" height="44">
<path d="M117.564 22.3944V62.8382C117.564 63.9344 118.449 64.8218 119.541 64.8218H142.717C145.371 64.8218 147.66 63.8613 149.575 61.9404C151.49 60.0194 152.447 57.3051 152.447 53.7869H128.564V31.5605C128.564 28.8984 127.606 26.6016 125.692 24.6703C123.891 22.8642 121.383 21.9037 118.178 21.7993H118.157C117.835 21.7993 117.564 22.0708 117.564 22.4048" fill="white"/>
</mask>
<g mask="url(#mask4_881_13343)">
<path d="M152.457 21.7993H117.564V64.8218H152.457V21.7993Z" fill="url(#paint4_linear_881_13343)"/>
</g>
<mask id="mask5_881_13343" style="mask-type:luminance" maskUnits="userSpaceOnUse" x="159" y="21" width="35" height="44">
<path d="M159.086 23.7525L159.127 62.8391C159.127 63.9353 160.012 64.8227 161.094 64.8227H184.27C186.923 64.8227 189.213 63.8622 191.128 61.9413C193.043 60.0203 194 57.306 194 53.7878H170.117V48.8393H182.251C184.905 48.8393 187.194 47.8788 189.119 45.9579C191.034 44.037 191.991 41.3122 191.991 37.8044H170.117V32.8455H184.228C186.882 32.8455 189.171 31.8851 191.096 29.9537C192.897 28.1476 193.854 25.6316 193.958 22.4266C193.969 22.0925 193.688 21.8107 193.355 21.8107L161.052 21.7898C159.96 21.7898 159.075 22.6772 159.075 23.7734" fill="white"/>
</mask>
<g mask="url(#mask5_881_13343)">
<path d="M194.01 21.7793H159.086V64.8226H194.01V21.7793Z" fill="url(#paint5_linear_881_13343)"/>
</g>
<defs>
<linearGradient id="paint0_linear_881_13343" x1="22.6324" y1="78.6338" x2="22.6324" y2="-25.3988" gradientUnits="userSpaceOnUse">
<stop stop-color="#1D49F5"/>
<stop offset="0.2" stop-color="#1D49F5"/>
<stop offset="0.94" stop-color="#0DCCFF"/>
<stop offset="1" stop-color="#0DCCFF"/>
</linearGradient>
<linearGradient id="paint1_linear_881_13343" x1="57.3905" y1="78.6336" x2="57.3905" y2="-25.399" gradientUnits="userSpaceOnUse">
<stop stop-color="#1D49F5"/>
<stop offset="0.2" stop-color="#1D49F5"/>
<stop offset="0.94" stop-color="#0DCCFF"/>
<stop offset="1" stop-color="#0DCCFF"/>
</linearGradient>
<linearGradient id="paint2_linear_881_13343" x1="46.1017" y1="9.86393" x2="64.9169" y2="9.86393" gradientUnits="userSpaceOnUse">
<stop stop-color="#1D49F5"/>
<stop offset="0.2" stop-color="#1D49F5"/>
<stop offset="0.94" stop-color="#0DCCFF"/>
<stop offset="1" stop-color="#0DCCFF"/>
</linearGradient>
<linearGradient id="paint3_linear_881_13343" x1="91.2438" y1="78.6344" x2="91.2438" y2="-25.3982" gradientUnits="userSpaceOnUse">
<stop stop-color="#1D49F5"/>
<stop offset="0.2" stop-color="#1D49F5"/>
<stop offset="0.94" stop-color="#0DCCFF"/>
<stop offset="1" stop-color="#0DCCFF"/>
</linearGradient>
<linearGradient id="paint4_linear_881_13343" x1="136.897" y1="78.6336" x2="136.897" y2="-25.399" gradientUnits="userSpaceOnUse">
<stop stop-color="#1D49F5"/>
<stop offset="0.2" stop-color="#1D49F5"/>
<stop offset="0.94" stop-color="#0DCCFF"/>
<stop offset="1" stop-color="#0DCCFF"/>
</linearGradient>
<linearGradient id="paint5_linear_881_13343" x1="178.44" y1="78.6345" x2="178.44" y2="-25.3982" gradientUnits="userSpaceOnUse">
<stop stop-color="#1D49F5"/>
<stop offset="0.2" stop-color="#1D49F5"/>
<stop offset="0.94" stop-color="#0DCCFF"/>
<stop offset="1" stop-color="#0DCCFF"/>
</linearGradient>
</defs>
</svg>
